<svg xmlns="http://www.w3.org/2000/svg" id="e34ab6ae-497e-4dd1-80c5-182624230c1e" data-name="Layer 1" viewBox="0 0 170.08 32.65">
  <g id="4e9ef3fa-fe7d-4062-b959-92277e3a4a0e" data-name="Page-1">
      <path id="logo-path" data-name="Logo-30" d="M24.9,24.1l-6.46-3.23H151.92l-6.46,3.23H24.9m21.53,4.31L40,25.18h90.42l-6.46,3.23H46.43m24.76,4.31-6.46-3.23h40.9l-6.46,3.23h-28M6.6,19.8L0.14,16.57H57.2l6.46,3.23H6.6m100.11,0,6.46-3.23h57.05l-6.46,3.23H106.71M8.25,5.14a2.21,2.21,0,0,1-.73.71,4,4,0,0,1-1.15.46,6.42,6.42,0,0,1-1.54.17,6.42,6.42,0,0,1-1.54-.17,4,4,0,0,1-1.15-.46A2.21,2.21,0,0,1,1.4,5.14a1.65,1.65,0,0,1-.26-0.89v-1H2.62V4A1,1,0,0,0,3.2,5a3.18,3.18,0,0,0,1.63.34A3.15,3.15,0,0,0,6.45,5,1,1,0,0,0,7,4V0.22H8.5v4a1.66,1.66,0,0,1-.26.89M19.8,6.3V0.22H26.4V1.38H21.28V2.64h3.55V3.8H21.28V5.14h5.35V6.3H19.8M41,1.38V6.3H39.57V1.38h-2.9V0.22h7.27V1.38H41m17.61,0a5.62,5.62,0,0,0-1.37-.16,4.54,4.54,0,0,0-1.44.17,0.57,0.57,0,0,0-.48.47,0.53,0.53,0,0,0,.53.44,3.66,3.66,0,0,0,.47.08l0.54,0,0.61,0,0.68,0a9.09,9.09,0,0,1,1.24.19,3.05,3.05,0,0,1,.88.34,1.4,1.4,0,0,1,.53.53,1.59,1.59,0,0,1,.17.76,1.73,1.73,0,0,1-.9,1.55,5.13,5.13,0,0,1-2.65.55,7.85,7.85,0,0,1-2.11-.27,6.08,6.08,0,0,1-1.84-.87l0.81-1A6.69,6.69,0,0,0,55.89,5a5.74,5.74,0,0,0,1.64.23A3.4,3.4,0,0,0,58.95,5a0.7,0.7,0,0,0,.5-0.61,0.37,0.37,0,0,0-.14-0.31,1,1,0,0,0-.41-0.17,3.9,3.9,0,0,0-.66-0.08l-0.87,0a12,12,0,0,1-1.55-.15,4.14,4.14,0,0,1-1.1-.33A1.64,1.64,0,0,1,54,2.79,1.36,1.36,0,0,1,53.82,2,1.6,1.6,0,0,1,54.69.59,4.93,4.93,0,0,1,57.22.07,6.42,6.42,0,0,1,60.79,1L60,1.93a5.52,5.52,0,0,0-1.3-.52M79.25,6.3V2h0l-2.9,3.49L73.43,2h0V6.3H71.92V0.22h1.73l2.67,3.23L79,0.22h1.73V6.3H79.25m18.5,0L97,5h-3.9L92.45,6.3H91l3.23-6.08H96L99.24,6.3h-1.5Zm-2.65-5L93.76,3.83h2.67L95.09,1.34h0Zm20.15,5-1.5-2.15H111V6.3h-1.48V0.22h5a2.94,2.94,0,0,1,.94.14,2.06,2.06,0,0,1,.72.41,1.84,1.84,0,0,1,.46.63,2,2,0,0,1,.16.81A1.72,1.72,0,0,1,115.36,4l1.55,2.26h-1.66ZM115,2.77a0.75,0.75,0,0,0,.26-0.6A0.71,0.71,0,0,0,115,1.59a1.12,1.12,0,0,0-.74-0.22H111V3h3.34A1.09,1.09,0,0,0,115,2.77h0Zm15.85-1.39V6.3H129.4V1.38h-2.9V0.22h7.27V1.38h-2.9M144.2,6.3V0.22h6.59V1.38h-5.12V2.64h3.55V3.8h-3.55V5.14H151V6.3H144.2m23.36,0-1.5-2.15h-2.8V6.3h-1.48V0.22h5a3,3,0,0,1,.95.14,2.07,2.07,0,0,1,.72.41,1.83,1.83,0,0,1,.46.63,2,2,0,0,1,.16.81A1.72,1.72,0,0,1,167.68,4l1.55,2.26h-1.66Zm-0.21-3.53a0.75,0.75,0,0,0,.26-0.6,0.71,0.71,0,0,0-.26-0.57,1.13,1.13,0,0,0-.74-0.22h-3.33V3h3.34a1.09,1.09,0,0,0,.73-0.22h0Z" transform="translate(-0.14 -0.07)" fill="#efece6"/>
  </g>
</svg>